<svg data-v-423bf9ae="" xmlns="http://www.w3.org/2000/svg" viewBox="0 0 112.0086378585625 60" class="font"><!----><!----><!----><g data-v-423bf9ae="" id="7c550df0-a458-4111-b1dc-ffd3f75e00db" fill="black" transform="matrix(4.319654320875766,0,0,4.319654320875766,-11.792656593521102,-9.114470402316677)"><path d="M4.37 14.58L4.21 14.62C4.33 15.60 4.92 16.00 5.84 16.00C7.57 16.00 8.02 13.84 8.28 12.63L9.28 8.27C9.41 7.69 10.00 5.54 10.07 4.78C10.52 4.78 10.83 4.78 10.92 4.78C11.68 4.78 12.74 4.82 13.85 4.82C15.97 4.82 18.32 4.66 19.27 3.74C19.51 3.48 19.61 3.25 19.61 3.04C19.61 2.48 19.13 2.11 18.42 2.11C17.47 4.08 14.79 4.44 11.02 4.44C8.51 4.44 3.10 4.35 2.79 4.34L2.73 4.83C3.04 4.81 5.04 4.79 6.99 4.79C7.40 4.83 7.53 4.97 7.53 5.34C7.53 5.54 7.49 5.80 7.44 6.13L6.12 14.18C6.00 14.90 5.52 15.22 5.10 15.22C4.74 15.22 4.42 14.99 4.37 14.58ZM13.43 14.58L13.27 14.62C13.39 15.60 13.98 16.00 14.90 16.00C16.63 16.00 17.08 13.84 17.34 12.63L18.34 8.27C18.47 7.69 19.06 5.54 19.13 4.78C19.58 4.78 19.89 4.78 19.98 4.78C20.74 4.78 21.79 4.82 22.91 4.82C25.03 4.82 27.38 4.66 28.33 3.74C28.57 3.48 28.66 3.25 28.66 3.04C28.66 2.48 28.18 2.11 27.47 2.11C26.52 4.08 23.84 4.44 20.08 4.44C17.57 4.44 12.15 4.35 11.85 4.34L11.79 4.83C12.09 4.81 14.10 4.79 16.05 4.79C16.45 4.83 16.59 4.97 16.59 5.34C16.59 5.54 16.55 5.80 16.50 6.13L15.18 14.18C15.05 14.90 14.58 15.22 14.16 15.22C13.80 15.22 13.47 14.99 13.43 14.58Z"></path></g><!----><!----></svg>